<svg xmlns="http://www.w3.org/2000/svg" version="1.1" xmlns:xlink="http://www.w3.org/1999/xlink" xmlns:svgjs="http://svgjs.dev/svgjs" width="1000" height="623" viewBox="0 0 1000 623"><g transform="matrix(1,0,0,1,-0.6060606060606233,0.2522267206477977)"><svg viewBox="0 0 396 247" data-background-color="#c8c8c8" preserveAspectRatio="xMidYMid meet" height="623" width="1000" xmlns="http://www.w3.org/2000/svg" xmlns:xlink="http://www.w3.org/1999/xlink"><g id="tight-bounds" transform="matrix(1,0,0,1,0.2400000000000091,-0.09999999999999432)"><svg viewBox="0 0 395.52 247.2" height="247.2" width="395.52"><g><svg></svg></g><g><svg viewBox="0 0 395.52 247.2" height="247.2" width="395.52"><g><g><path xmlns="http://www.w3.org/2000/svg" d="M134.045 26.461l0 31.517h-29.942v-28.732c0-5.339-1.091-9.238-3.273-11.698-2.228-2.414-6.708-3.621-13.44-3.621h-11.837v-10.445h53.618l86.346-3.482c32.264 0 57.75 10.445 76.458 31.335 7.042 7.883 12.755 16.764 17.14 26.643l-37.924 0c-3.435-3.664-7.138-6.974-11.109-9.931-22.051-16.712-44.798-25.068-68.241-25.068zM134.045 215.865c13.463 7.892 31.799 11.838 55.011 11.838 27.621 0 51.993-7.544 73.115-22.631 6.025-4.322 11.348-9.606 15.969-15.85l17.34 0c-4.586 6.228-9.817 12.254-15.691 18.078-26.832 26.6-58.237 39.9-94.215 39.9h-110.021v-10.445h11.837c6.963 0 11.49-1.277 13.579-3.83 2.089-2.553 3.134-6.383 3.134-11.49v-32.213l29.942 0z" fill="#6b7280" fill-rule="nonzero" stroke="none" stroke-width="1" stroke-linecap="butt" stroke-linejoin="miter" stroke-miterlimit="10" stroke-dasharray="" stroke-dashoffset="0" font-family="none" font-weight="none" font-size="none" text-anchor="none" style="mix-blend-mode: normal" data-fill-palette-color="tertiary"></path></g></g><g transform="matrix(1,0,0,1,0,66.57158806145574)"><svg viewBox="0 0 395.52 114.05682387708849" height="114.05682387708849" width="395.52"><g><svg viewBox="0 0 591.941082408275 170.69912970735675" height="114.05682387708849" width="395.52"><g transform="matrix(1,0,0,1,0,38.91141554635466)"><svg viewBox="0 0 395.52 92.87629861464742" height="92.87629861464742" width="395.52"><g id="textblocktransform"><svg viewBox="0 0 395.52 92.87629861464742" height="92.87629861464742" width="395.52" id="textblock"><g><svg viewBox="0 0 395.52 54.47811870100783" height="54.47811870100783" width="395.52"><g transform="matrix(1,0,0,1,0,0)"><svg width="395.52" viewBox="2 -35.900001525878906 267.8800048828125 36.900001525878906" height="54.47811870100783" data-palette-color="#6b7280"><path d="M18.7-32.2L10.4-31.7 10.4-4.5Q13.3-2.8 18.3-2.8L18.3-2.8Q24.25-2.8 28.8-6.05L28.8-6.05Q31.1-7.7 32.45-10.65 33.8-13.6 33.8-17.32 33.8-21.05 32.33-23.95 30.85-26.85 28.5-28.6L28.5-28.6Q23.75-32.2 18.7-32.2L18.7-32.2ZM2-35L9.7-35 22.1-35.5Q29.05-35.5 33.08-31 37.1-26.5 37.1-18.98 37.1-11.45 31.33-5.73 25.55 0 17.8 0L17.8 0 2 0 2-1.5 3.7-1.5Q5.2-1.5 5.65-2.05 6.1-2.6 6.1-3.7L6.1-3.7 6.1-31.3Q6.1-32.45 5.63-32.98 5.15-33.5 3.7-33.5L3.7-33.5 2-33.5 2-35ZM69.4-6.9L67.7 0 40.9 0 40.9-1.4 42.6-1.4Q44.05-1.4 44.52-1.95 45-2.5 45-3.7L45-3.7 45-31.3Q45-32.3 44.37-32.95 43.75-33.6 42.6-33.6L42.6-33.6 40.9-33.6 40.9-35 67.3-35 67.7-28.1 66.3-27.8Q66.3-29.6 64.85-31.25 63.4-32.9 60.8-32.9L60.8-32.9 51.7-32.9Q50.2-32.9 49.75-32.33 49.3-31.75 49.3-30.7L49.3-30.7 49.3-19.3 59.3-19.3Q60.05-19.3 60.45-19.38 60.85-19.45 61.17-19.9 61.5-20.35 61.5-21.2L61.5-21.2 61.5-23.5 63-23.5 63-13.1 61.5-13.1 61.5-15.2Q61.5-16.45 60.95-16.82 60.4-17.2 59.3-17.2L59.3-17.2 49.3-17.2 49.3-4.3Q49.3-3.25 49.75-2.68 50.2-2.1 51.7-2.1L51.7-2.1 61.2-2.1Q63.85-2.1 65.87-3.8 67.9-5.5 68-7.1L68-7.1 69.4-6.9ZM101.4-6.9L99.7 0 72.9 0 72.9-1.4 74.6-1.4Q76.05-1.4 76.52-1.95 77-2.5 77-3.7L77-3.7 77-31.3Q77-32.3 76.37-32.95 75.75-33.6 74.6-33.6L74.6-33.6 72.9-33.6 72.9-35 99.3-35 99.7-28.1 98.3-27.8Q98.3-29.6 96.85-31.25 95.4-32.9 92.8-32.9L92.8-32.9 83.7-32.9Q82.2-32.9 81.75-32.33 81.3-31.75 81.3-30.7L81.3-30.7 81.3-19.3 91.3-19.3Q92.05-19.3 92.45-19.38 92.85-19.45 93.17-19.9 93.5-20.35 93.5-21.2L93.5-21.2 93.5-23.5 95-23.5 95-13.1 93.5-13.1 93.5-15.2Q93.5-16.45 92.95-16.82 92.4-17.2 91.3-17.2L91.3-17.2 81.3-17.2 81.3-4.3Q81.3-3.25 81.75-2.68 82.2-2.1 83.7-2.1L83.7-2.1 93.2-2.1Q95.85-2.1 97.87-3.8 99.9-5.5 100-7.1L100-7.1 101.4-6.9ZM114.99-15.7L114.59-17.7 116.99-17.6Q120.74-17.6 123.89-18.8L123.89-18.8Q125.74-19.5 126.87-21 127.99-22.5 127.99-24.7L127.99-24.7Q127.99-32.6 118.49-32.6L118.49-32.6 113.29-32.4 113.29-3.6Q113.29-2.9 113.39-2.5 113.49-2.1 114.04-1.75 114.59-1.4 115.69-1.4L115.69-1.4 117.59-1.4 117.59 0 104.89 0 104.89-1.4 106.49-1.4Q107.59-1.4 108.14-1.75 108.69-2.1 108.79-2.5 108.89-2.9 108.89-3.6L108.89-3.6 108.89-31.3Q108.89-32.45 108.42-32.98 107.94-33.5 106.49-33.5L106.49-33.5 104.89-33.5 104.89-35 112.59-35 122.09-35.5Q126.59-35.5 129.34-33.55 132.09-31.6 132.09-28.08 132.09-24.55 130.47-21.93 128.84-19.3 126.44-18L126.44-18Q121.89-15.6 118.29-15.6L118.29-15.6Q116.19-15.6 114.99-15.7L114.99-15.7ZM163.59-6.9L161.89 0 135.09 0 135.09-1.5 136.79-1.5Q138.29-1.5 138.74-2.05 139.19-2.6 139.19-3.7L139.19-3.7 139.19-31.3Q139.19-32.4 138.74-32.95 138.29-33.5 136.79-33.5L136.79-33.5 135.09-33.5 135.09-35 147.79-35 147.79-33.5 145.89-33.5Q144.39-33.5 143.94-32.95 143.49-32.4 143.49-31.3L143.49-31.3 143.49-4.4Q143.49-3.3 143.94-2.7 144.39-2.1 145.89-2.1L145.89-2.1 155.39-2.1Q158.04-2.1 160.07-3.83 162.09-5.55 162.09-7.2L162.09-7.2 163.59-6.9ZM181.39 1L181.39 1Q174.84 1 170.46-4.05 166.09-9.1 166.09-15.7L166.09-15.7Q166.09-19.8 167.89-23.6 169.69-27.4 172.51-30.05 175.34-32.7 178.76-34.3 182.19-35.9 185.39-35.9L185.39-35.9Q191.89-35.9 196.29-30.85 200.69-25.8 200.69-19.2L200.69-19.2Q200.69-14.3 198.04-9.63 195.39-4.95 190.86-1.98 186.34 1 181.39 1ZM184.49-2.8L184.49-2.8Q189.94-2.8 193.66-6.8 197.39-10.8 197.39-16.7 197.39-22.6 193.06-27.3 188.74-32 182.59-32L182.59-32Q177.34-32 173.36-28.23 169.39-24.45 169.39-19.2L169.39-19.2Q169.39-12.4 173.56-7.6 177.74-2.8 184.49-2.8ZM219.59 1L219.59 1Q213.04 1 208.66-4.05 204.29-9.1 204.29-15.7L204.29-15.7Q204.29-19.8 206.09-23.6 207.89-27.4 210.71-30.05 213.54-32.7 216.96-34.3 220.39-35.9 223.59-35.9L223.59-35.9Q230.09-35.9 234.49-30.85 238.89-25.8 238.89-19.2L238.89-19.2Q238.89-14.3 236.24-9.63 233.59-4.95 229.06-1.98 224.54 1 219.59 1ZM222.69-2.8L222.69-2.8Q228.14-2.8 231.86-6.8 235.59-10.8 235.59-16.7 235.59-22.6 231.26-27.3 226.94-32 220.79-32L220.79-32Q215.54-32 211.56-28.23 207.59-24.45 207.59-19.2L207.59-19.2Q207.59-12.4 211.76-7.6 215.94-2.8 222.69-2.8ZM252.78-15.7L252.38-17.7 254.78-17.6Q258.53-17.6 261.68-18.8L261.68-18.8Q263.53-19.5 264.66-21 265.78-22.5 265.78-24.7L265.78-24.7Q265.78-32.6 256.28-32.6L256.28-32.6 251.08-32.4 251.08-3.6Q251.08-2.9 251.18-2.5 251.28-2.1 251.83-1.75 252.38-1.4 253.48-1.4L253.48-1.4 255.38-1.4 255.38 0 242.68 0 242.68-1.4 244.28-1.4Q245.38-1.4 245.93-1.75 246.48-2.1 246.58-2.5 246.68-2.9 246.68-3.6L246.68-3.6 246.68-31.3Q246.68-32.45 246.21-32.98 245.73-33.5 244.28-33.5L244.28-33.5 242.68-33.5 242.68-35 250.38-35 259.88-35.5Q264.38-35.5 267.13-33.55 269.88-31.6 269.88-28.08 269.88-24.55 268.26-21.93 266.63-19.3 264.23-18L264.23-18Q259.68-15.6 256.08-15.6L256.08-15.6Q253.98-15.6 252.78-15.7L252.78-15.7Z" opacity="1" transform="matrix(1,0,0,1,0,0)" fill="#6b7280" class="wordmark-text-0" data-fill-palette-color="primary" id="text-0"></path></svg></g></svg></g><g transform="matrix(1,0,0,1,163.310208,67.33909505146696)"><svg viewBox="0 0 232.209792 25.537203563180466" height="25.537203563180466" width="232.209792"><g transform="matrix(1,0,0,1,0,0)"><svg width="232.209792" viewBox="3.8499999046325684 -37.5 454.6000061035156 50" height="25.537203563180466" data-palette-color="#97978d"><path d="M11.85-33.1L15-33.1 15 0 11.85 0 11.85-32.15 3.9-30.35 3.85-31.3 11.85-33.1ZM53.15 12.45L42.6 12.5 42.65 11.8 45.25 11.45Q45.7 11.4 45.7 10.75L45.7 10.75 45.7-23.35Q45.6-23.75 45.4-23.75L45.4-23.75 42.35-23.85 42.4-24.55Q45.55-25 46.7-25 47.85-25 48.35-24.43 48.85-23.85 48.95-23.15L48.95-23.15Q52.1-25.45 55.65-25.45L55.65-25.45Q59.05-25.45 62.05-23.35L62.05-23.35Q63.65-22.2 64.62-19.75 65.59-17.3 65.59-13.8L65.59-13.8Q65.59-7.15 62.3-3.8L62.3-3.8Q58.55 0 52.6 0L52.6 0Q50.85 0 48.95-0.25L48.95-0.25 48.95 11.45 53.2 11.7Q53.15 12.4 53.15 12.45L53.15 12.45ZM48.95-22.15L48.95-22.15 48.95-1.3Q50.4-0.95 52.1-0.95L52.1-0.95Q57-0.95 59.67-4.28 62.35-7.6 62.35-13.55L62.35-13.55Q62.35-20.35 59.65-22.7L59.65-22.7Q57.55-24.55 54.95-24.55 52.35-24.55 48.95-22.15ZM75.39-22.95L75.39-22.95 75.39-18.95Q79.34-24.75 83.14-24.85L83.14-24.85Q83.44-24.85 83.74-24.85L83.74-24.85 86.54-24.5 85.24-21.5Q84.29-22.45 82.79-22.45L82.79-22.45Q79.14-22.4 75.39-17.6L75.39-17.6 75.39-1 79.64-0.75Q79.64-0.7 79.59 0L79.59 0 69.09 0.05Q69.09-0.4 69.14-0.65L69.14-0.65 71.74-1Q72.14-1.05 72.14-1.7L72.14-1.7 72.14-23.4Q72.04-23.75 71.84-23.75L71.84-23.75 68.84-23.85 68.89-24.55Q71.59-25 72.99-25 74.39-25 74.89-24.35 75.39-23.7 75.39-22.95ZM99.47 0.2Q94.24 0.2 91.02-2.8 87.79-5.8 87.79-11.98 87.79-18.15 91.22-21.68 94.64-25.2 99.84-25.2 105.04-25.2 108.29-22.2 111.54-19.2 111.54-13.03 111.54-6.85 108.12-3.33 104.69 0.2 99.47 0.2ZM99.79-24.3Q96.04-24.3 93.54-21.05 91.04-17.8 91.04-12.23 91.04-6.65 93.42-3.68 95.79-0.7 99.54-0.7 103.29-0.7 105.79-3.95 108.29-7.2 108.29-12.75 108.29-18.3 105.92-21.3 103.54-24.3 99.79-24.3ZM120.89-35.45L120.89-35.45 120.89-23Q123.89-25.45 127.59-25.45L127.59-25.45Q130.99-25.45 133.99-23.35L133.99-23.35Q135.59-22.2 136.56-19.75 137.54-17.3 137.54-13.8L137.54-13.8Q137.54-7.15 134.24-3.8L134.24-3.8Q130.49 0 124.74 0L124.74 0Q122.59 0 120.46-0.35 118.34-0.7 117.64-1.15L117.64-1.15 117.64-35.85Q117.54-36.25 117.34-36.25L117.34-36.25 114.29-36.35 114.34-37.05Q117.49-37.5 118.66-37.5 119.84-37.5 120.36-36.85 120.89-36.2 120.89-35.45ZM120.89-22.05L120.89-22.05 120.89-0.9Q122.24-0.45 124.04-0.45L124.04-0.45Q128.94-0.45 131.61-3.9 134.29-7.35 134.29-13.55L134.29-13.55Q134.29-20.35 131.59-22.7L131.59-22.7Q129.49-24.55 126.74-24.55 123.99-24.55 120.89-22.05ZM151.59 0L141.54 0.05 141.59-0.65 144.19-1Q144.54-1.05 144.64-1.5L144.64-1.5 144.64-35.7Q144.64-36.25 144.34-36.25L144.34-36.25 141.29-36.35 141.34-37.05Q144.49-37.5 145.66-37.5 146.84-37.5 147.36-36.85 147.89-36.2 147.89-35.45L147.89-35.45 147.89-1 151.64-0.75Q151.64-0.7 151.59 0L151.59 0ZM159.13-11.5L159.13-11.5Q159.13-0.7 167.53-0.7L167.53-0.7Q169.73-0.7 172.23-1.18 174.73-1.65 175.43-2.05L175.43-2.05 175.78-1.55Q174.63-0.8 172.01-0.3 169.38 0.2 167.21 0.2 165.03 0.2 163.31-0.25 161.58-0.7 159.78-1.85 157.98-3 156.93-5.45 155.88-7.9 155.88-11.45L155.88-11.45Q155.88-18.05 159.28-21.55L159.28-21.55Q162.83-25.2 167.53-25.2 172.23-25.2 174.71-22.6 177.18-20 177.18-15.3L177.18-15.3Q177.18-14.3 177.03-13.15L177.03-13.15 159.18-13.15Q159.13-12.6 159.13-11.5ZM174.23-15.65L174.23-15.65Q174.23-19.4 172.58-21.78 170.93-24.15 168.08-24.15L168.08-24.15Q164.38-24.15 161.83-20.9L161.83-20.9Q159.78-18.35 159.28-14.1L159.28-14.1 174.18-14.1Q174.23-14.65 174.23-15.65ZM193.48-24.05L193.48-24.05Q190.48-24 186.98-21.85L186.98-21.85 186.98-1 190.73-0.75Q190.73-0.7 190.68 0L190.68 0 180.68 0.05Q180.68-0.4 180.73-0.65L180.73-0.65 183.33-1Q183.63-1 183.73-1.45L183.73-1.45 183.73-23.4Q183.63-23.75 183.43-23.75L183.43-23.75 180.43-23.85 180.48-24.55Q183.18-25 184.58-25 185.98-25 186.48-24.35 186.98-23.7 186.98-22.95L186.98-22.95 186.98-22.35Q191.13-24.95 194.58-25.15L194.58-25.15Q199.33-25.15 201.03-22.45L201.03-22.45Q205.38-24.95 209.23-25.15L209.23-25.15Q212.73-25.15 214.53-23.7L214.53-23.7Q215.38-23.05 216.01-21.68 216.63-20.3 216.63-18.4L216.63-18.4 216.63-1 220.38-0.75Q220.38-0.7 220.33 0L220.33 0 210.33 0.05Q210.33-0.4 210.38-0.65L210.38-0.65 212.98-1Q213.28-1 213.38-1.45L213.38-1.45 213.38-17.15Q213.38-19.15 212.88-20.58 212.38-22 211.78-22.65 211.18-23.3 210.28-23.65L210.28-23.65Q209.28-24.05 208.13-24.05L208.13-24.05Q205.03-24 201.38-21.7L201.38-21.7Q202.03-20.3 202.03-18.4L202.03-18.4 202.03-1 205.78-0.75Q205.78-0.7 205.73 0L205.73 0 195.68 0.05 195.73-0.65 198.33-1Q198.68-1.05 198.78-1.5L198.78-1.5 198.78-17.2Q198.78-19.65 198.13-21.23 197.48-22.8 196.38-23.3L196.38-23.3Q194.88-24.05 193.48-24.05ZM225.03-3.25L225.03-3.25Q225.03-3.25 227.73-3.2L227.73-3.2Q227.73-1.45 226.58 1.5L226.58 1.5Q226.18 2.55 225.65 3.55 225.13 4.55 224.83 5.15L224.83 5.15 224.03 5.05 224.28 3.35Q225.03-1.2 225.03-2.15 225.03-3.1 225.03-3.25ZM255.67-33.1L258.82-33.1 258.82 0 255.67 0 255.67-32.15 247.72-30.35 247.67-31.3 255.67-33.1ZM292.27-0.6L292.27-0.6Q292.57-0.6 292.87-0.65L292.87-0.65Q295.47-0.7 297.22-2.27 298.97-3.85 298.97-6.9L298.97-6.9Q298.97-9.9 294.27-11.25L294.27-11.25Q292.32-11.8 290.37-12.45 288.42-13.1 287.04-14.5 285.67-15.9 285.67-18.15L285.67-18.15Q285.67-21.35 288.12-23.28 290.57-25.2 294.32-25.2L294.32-25.2Q297.12-25.2 299.97-24.2L299.97-24.2 300.87-23.85 300.87-18.1 299.92-17.75 299.72-22Q296.82-24.3 294.87-24.3L294.87-24.3Q292.12-24.3 290.52-22.68 288.92-21.05 288.92-18.35L288.92-18.35Q288.92-16.8 290.29-15.85 291.67-14.9 293.62-14.35 295.57-13.8 297.52-13.13 299.47-12.45 300.84-10.93 302.22-9.4 302.22-6.95L302.22-6.95Q302.22-3.65 299.74-1.73 297.27 0.2 292.72 0.2 288.17 0.2 285.17-1.95L285.17-1.95 285.17-7.7 286.07-8.05 286.32-3.8Q287.02-2.5 288.84-1.55 290.67-0.6 292.27-0.6ZM318.84 0.2Q313.62 0.2 310.39-2.8 307.17-5.8 307.17-11.98 307.17-18.15 310.59-21.68 314.02-25.2 319.22-25.2 324.42-25.2 327.67-22.2 330.92-19.2 330.92-13.03 330.92-6.85 327.49-3.33 324.06 0.2 318.84 0.2ZM319.17-24.3Q315.42-24.3 312.92-21.05 310.42-17.8 310.42-12.23 310.42-6.65 312.79-3.68 315.17-0.7 318.92-0.7 322.67-0.7 325.17-3.95 327.67-7.2 327.67-12.75 327.67-18.3 325.29-21.3 322.92-24.3 319.17-24.3ZM344.46 0L334.41 0.05 334.46-0.65 337.06-1Q337.41-1.05 337.51-1.5L337.51-1.5 337.51-35.7Q337.51-36.25 337.21-36.25L337.21-36.25 334.16-36.35 334.21-37.05Q337.36-37.5 338.54-37.5 339.71-37.5 340.24-36.85 340.76-36.2 340.76-35.45L340.76-35.45 340.76-1 344.51-0.75Q344.51-0.7 344.46 0L344.46 0ZM349.16-23.95L346.56-24.2 346.51-24.95 353.26-25 353.26-7.6Q353.26-5.65 353.81-4.23 354.36-2.8 355.04-2.15 355.71-1.5 356.61-1.15L356.61-1.15Q358.01-0.65 358.96-0.75L358.96-0.75Q362.01-0.8 365.91-3.9L365.91-3.9 365.91-23.25Q365.71-23.85 365.06-23.95L365.06-23.95 362.46-24.2Q362.41-24.5 362.41-24.95L362.41-24.95 369.16-25 369.16-2.3Q369.26-1.05 369.96-1.05L369.96-1.05 372.96-0.9 372.91-0.15Q370.51 0.25 367.91 0.25L367.91 0.25Q367.31 0.2 366.61-0.43 365.91-1.05 365.91-2L365.91-2 365.91-2.9Q361.36 0.15 357.31 0.15L357.31 0.15Q355.61 0.15 353.31-0.7L353.31-0.7Q351.81-1.25 350.91-2.78 350.01-4.3 350.01-6.6L350.01-6.6 350.01-23.2Q350.01-23.45 349.74-23.68 349.46-23.9 349.16-23.95L349.16-23.95ZM386.36-0.95L386.36-0.95 388.31-1.05 388.46-0.55Q388.41-0.55 387.76-0.4L387.76-0.4Q386.26-0.05 384.41-0.05L384.41-0.05Q382.71-0.15 381.31-0.63 379.91-1.1 378.71-2.63 377.51-4.15 377.51-6.55L377.51-6.55 377.51-24.1 374.96-24.1 375.36-24.5 377.56-24.95 377.96-29.75 380.76-30 380.76-25 386.81-25 386.81-24.1 380.76-24.1 380.76-7.4Q380.76-3.6 382.36-2.27 383.96-0.95 386.36-0.95ZM397.51-22.95L397.51-22.95 397.51-1 401.26-0.75Q401.26-0.7 401.21 0L401.21 0 391.21 0.05Q391.21-0.4 391.26-0.65L391.26-0.65 393.86-1Q394.16-1 394.26-1.45L394.26-1.45 394.26-23.4Q394.16-23.75 393.96-23.75L393.96-23.75 390.96-23.85 391.01-24.55Q393.71-25 395.11-25 396.51-25 397.01-24.35 397.51-23.7 397.51-22.95ZM395.81-31.7Q394.81-31.7 394.26-32.33 393.71-32.95 393.71-33.98 393.71-35 394.28-35.63 394.86-36.25 395.86-36.25 396.86-36.25 397.48-35.63 398.11-35 398.11-33.93 398.11-32.85 397.46-32.27 396.81-31.7 395.81-31.7ZM417.68 0.2Q412.45 0.2 409.23-2.8 406-5.8 406-11.98 406-18.15 409.43-21.68 412.85-25.2 418.05-25.2 423.25-25.2 426.5-22.2 429.75-19.2 429.75-13.03 429.75-6.85 426.33-3.33 422.9 0.2 417.68 0.2ZM418-24.3Q414.25-24.3 411.75-21.05 409.25-17.8 409.25-12.23 409.25-6.65 411.63-3.68 414-0.7 417.75-0.7 421.5-0.7 424-3.95 426.5-7.2 426.5-12.75 426.5-18.3 424.13-21.3 421.75-24.3 418-24.3ZM442.8 0L432.75 0.05 432.8-0.65 435.4-1Q435.85-1.05 435.85-1.7L435.85-1.7 435.85-23.35Q435.75-23.75 435.55-23.75L435.55-23.75 432.5-23.85 432.55-24.55Q435.7-25 436.8-25L436.8-25Q438.8-25 439.05-23.25L439.05-23.25 439.1-23.25 439.1-22.2Q443.2-25 446.95-25.15L446.95-25.15Q450.6-25.15 452.5-23.7L452.5-23.7Q453.35-23.05 454.03-21.68 454.7-20.3 454.7-18.4L454.7-18.4 454.7-1 458.45-0.75Q458.45-0.7 458.4 0L458.4 0 448.4 0.05Q448.4-0.4 448.45-0.65L448.45-0.65 451.05-1Q451.45-1.05 451.45-1.7L451.45-1.7 451.45-17.15Q451.45-19.15 450.93-20.55 450.4-21.95 449.75-22.6 449.1-23.25 448.15-23.6L448.15-23.6Q447.05-24 445.85-24L445.85-24Q442.85-23.95 439.1-21.65L439.1-21.65 439.1-1 442.85-0.75Q442.85-0.7 442.8 0L442.8 0Z" opacity="1" transform="matrix(1,0,0,1,0,0)" fill="#97978d" class="slogan-text-1" data-fill-palette-color="secondary" id="text-1"></path></svg></g></svg></g></svg></g></svg></g><g transform="matrix(1,0,0,1,421.2419527009182,0)"><svg viewBox="0 0 170.69912970735675 170.69912970735675" height="170.69912970735675" width="170.69912970735675"><g><svg></svg></g><g id="icon-0"><svg viewBox="0 0 170.69912970735675 170.69912970735675" height="170.69912970735675" width="170.69912970735675"><g><path d="M0 85.35c0-47.137 38.212-85.35 85.35-85.35 47.137 0 85.35 38.212 85.349 85.35 0 47.137-38.212 85.35-85.349 85.349-47.137 0-85.35-38.212-85.35-85.349zM85.35 165.786c44.424 0 80.437-36.013 80.436-80.436 0-44.424-36.013-80.437-80.436-80.437-44.424 0-80.437 36.013-80.437 80.437 0 44.424 36.013 80.437 80.437 80.436z" data-fill-palette-color="accent" fill="#97978d" stroke="transparent"></path></g><g transform="matrix(1,0,0,1,34.95370993677488,34.95371391288493)"><svg viewBox="0 0 100.79170983380699 100.79170188158689" height="100.79170188158689" width="100.79170983380699"><g><svg xmlns="http://www.w3.org/2000/svg" xmlns:xlink="http://www.w3.org/1999/xlink" version="1.1" x="0" y="0" viewBox="1.6000001430511475 1.6000001430511475 96.70000457763672 96.69999694824219" enable-background="new 0 0 100 100" xml:space="preserve" height="100.79170188158689" width="100.79170983380699" class="icon-s-0" data-fill-palette-color="accent" id="s-0"><path d="M98.3 45.7c0-1.8-1.4-3.2-3.2-3.2h-7.2c-1-5.1-3-9.8-5.8-14l5.1-5.1c1.2-1.2 1.2-3.3 0-4.5l-6.1-6.1c-1.2-1.2-3.3-1.2-4.5 0l-5.1 5.1c-4.2-2.8-8.9-4.8-14-5.8V4.8c0-1.8-1.4-3.2-3.2-3.2h-8.7c-1.8 0-3.2 1.4-3.2 3.2v7.2c-5.1 1-9.8 3-14 5.8l-5.1-5.1c-1.2-1.2-3.3-1.2-4.5 0l-6.1 6.1c-1.2 1.2-1.2 3.3 0 4.5l5.1 5.1c-2.8 4.2-4.8 8.9-5.8 14H4.8c-1.8 0-3.2 1.4-3.2 3.2v8.7c0 1.8 1.4 3.2 3.2 3.2h7.2c1 5.1 3 9.8 5.8 14l-5.1 5.1c-1.2 1.2-1.2 3.3 0 4.5l6.1 6.1c1.2 1.2 3.3 1.2 4.5 0l5.1-5.1c4.2 2.8 8.9 4.8 14 5.8v7.2c0 1.8 1.4 3.2 3.2 3.2h8.7c1.8 0 3.2-1.4 3.2-3.2v-7.2c5.1-1 9.8-3 14-5.8l5.1 5.1c1.2 1.2 3.3 1.2 4.5 0l6.1-6.1c1.2-1.2 1.2-3.3 0-4.5l-5.1-5.1c2.8-4.2 4.8-8.9 5.8-14h7.2c1.8 0 3.2-1.4 3.2-3.2V45.7zM50 75.4C36 75.4 24.6 64 24.6 50 24.6 36 36 24.6 50 24.6 64 24.6 75.4 36 75.4 50 75.4 64 64 75.4 50 75.4zM60.2 36.6l6.2 6.3L52.1 57.1l-6.3 6.2-6.2-6.3-6-6 6.3-6.2 6 6L60.2 36.6z" fill="#97978d" data-fill-palette-color="accent"></path></svg></g></svg></g></svg></g></svg></g></svg></g></svg></g></svg></g><defs></defs></svg><rect width="395.52" height="247.2" fill="none" stroke="none" visibility="hidden"></rect></g></svg></g></svg>